<svg width="59" height="57" viewBox="0 0 59 57" fill="none" xmlns="http://www.w3.org/2000/svg">
<circle cx="22" cy="20" r="6" fill="#CC66FF"/>
<circle cx="37" cy="20" r="6" fill="#CC66FF"/>
<circle cx="37" cy="35" r="6" fill="#CC66FF"/>
<circle cx="22" cy="35" r="6" fill="#CC66FF"/>
<circle cx="49" cy="35" r="3" fill="#CC66FF"/>
<circle cx="49" cy="20" r="3" fill="#CC66FF"/>
<circle cx="49" cy="46" r="3" fill="#CC66FF"/>
<circle cx="37" cy="46" r="3" fill="#CC66FF"/>
<circle cx="22" cy="46" r="3" fill="#CC66FF"/>
<circle cx="49" cy="9" r="3" fill="#CC66FF"/>
<circle cx="37" cy="9" r="3" fill="#CC66FF"/>
<circle cx="10" cy="9" r="3" fill="#CC66FF"/>
<circle cx="10" cy="20" r="3" fill="#CC66FF"/>
<circle cx="10" cy="46" r="3" fill="#CC66FF"/>
<circle cx="10" cy="35" r="3" fill="#CC66FF"/>
<circle cx="22" cy="9" r="3" fill="#CC66FF"/>
<circle cx="22" cy="2" r="2" fill="#CC66FF"/>
<circle cx="37" cy="55" r="2" fill="#CC66FF"/>
<circle cx="22" cy="55" r="2" fill="#CC66FF"/>
<circle cx="37" cy="2" r="2" fill="#CC66FF"/>
<circle cx="57" cy="20" r="2" fill="#CC66FF"/>
<circle cx="2" cy="35" r="2" fill="#CC66FF"/>
<circle cx="2" cy="20" r="2" fill="#CC66FF"/>
<circle cx="57" cy="35" r="2" fill="#CC66FF"/>
</svg>
